<?xml version="1.0" standalone="no"?>
<!DOCTYPE svg PUBLIC "-//W3C//DTD SVG 20010904//EN"
 "http://www.w3.org/TR/2001/REC-SVG-20010904/DTD/svg10.dtd">
<svg version="1.0" xmlns="http://www.w3.org/2000/svg"
 width="246.000000pt" height="184.000000pt" viewBox="0 0 246.000000 184.000000"
 preserveAspectRatio="xMidYMid meet">

<g transform="translate(0.000000,184.000000) scale(0.100000,-0.100000)"
fill="#000000" stroke="none">
<path d="M234 816 c-3 -7 -4 -40 -2 -72 3 -59 3 -59 36 -62 19 -2 44 4 58 13
34 22 35 96 2 119 -28 20 -87 21 -94 2z m81 -61 c0 -36 -3 -40 -27 -43 -27 -3
-28 -2 -28 43 0 45 1 46 28 43 24 -3 27 -7 27 -43z"/>
<path d="M1543 813 c-4 -10 -11 -21 -17 -25 -8 -5 -7 -11 2 -20 6 -6 12 -29
12 -50 0 -21 5 -38 10 -38 6 0 10 20 10 44 0 26 5 46 13 49 9 4 9 8 -2 15 -9
7 -10 12 -2 16 16 10 13 26 -4 26 -9 0 -19 -8 -22 -17z"/>
<path d="M804 803 c-7 -11 -24 -18 -45 -18 -34 0 -34 0 -34 -47 0 -54 18 -70
23 -21 6 64 62 72 62 8 0 -23 6 -38 15 -42 21 -7 32 4 17 19 -16 16 -15 65 1
72 10 5 10 7 0 12 -7 3 -13 12 -13 20 0 19 -13 18 -26 -3z"/>
<path d="M1292 804 c-14 -28 0 -118 18 -122 12 -2 15 9 14 58 -2 67 -16 95
-32 64z"/>
<path d="M382 778 c-7 -7 -12 -27 -12 -45 0 -38 28 -58 66 -49 33 9 31 27 -2
24 -15 -2 -29 3 -31 10 -3 8 7 12 31 12 25 0 36 5 36 14 0 37 -61 61 -88 34z
m51 -23 c1 -5 -6 -11 -15 -13 -11 -2 -18 3 -18 13 0 17 30 18 33 0z"/>
<path d="M490 713 c0 -40 4 -73 9 -73 5 0 11 10 13 22 2 16 10 22 31 23 32 1
47 18 47 56 0 35 -17 47 -62 46 l-38 -1 0 -73z m65 21 c0 -32 -21 -39 -38 -12
-8 12 -7 21 3 32 19 24 35 14 35 -20z"/>
<path d="M623 783 c-26 -10 -12 -24 17 -18 35 8 42 -10 8 -21 -39 -11 -49 -24
-37 -45 8 -15 18 -19 47 -16 35 4 37 6 40 41 5 55 -26 79 -75 59z m47 -62 c0
-14 -18 -23 -30 -16 -6 4 -8 11 -5 16 8 12 35 12 35 0z"/>
<path d="M872 736 c4 -62 22 -68 26 -8 2 28 8 42 17 42 9 0 15 -14 17 -42 4
-56 22 -55 26 0 3 34 7 43 20 40 12 -2 18 -15 20 -46 2 -23 8 -42 13 -42 6 0
9 22 7 53 l-3 52 -73 1 -73 0 3 -50z"/>
<path d="M1056 774 c-21 -21 -20 -57 2 -77 23 -21 43 -21 68 -2 18 15 17 15
-15 13 -20 -2 -36 2 -38 10 -3 8 7 12 31 12 28 0 36 4 36 18 0 40 -54 57 -84
26z m54 -13 c0 -14 -18 -23 -30 -16 -6 4 -8 11 -5 16 8 12 35 12 35 0z"/>
<path d="M1163 774 c-8 -21 1 -89 12 -87 6 1 12 19 15 40 3 25 10 38 20 38 10
0 17 -13 20 -38 3 -21 10 -39 15 -40 14 -3 18 72 5 88 -14 17 -80 17 -87 -1z"/>
<path d="M1413 764 c-15 -24 -15 -29 -2 -53 28 -49 99 -32 99 24 0 55 -67 75
-97 29z m65 -23 c4 -29 -9 -44 -31 -35 -17 6 -23 44 -10 58 14 14 38 0 41 -23z"/>
<path d="M230 540 c0 -56 3 -70 15 -70 10 0 15 10 15 30 0 27 3 30 30 30 27 0
30 -3 30 -30 0 -20 5 -30 15 -30 13 0 15 12 13 67 -3 68 -24 100 -30 46 -2
-22 -9 -29 -30 -31 -25 -3 -28 0 -28 27 0 21 -5 31 -15 31 -12 0 -15 -14 -15
-70z"/>
<path d="M740 600 c0 -5 5 -10 10 -10 6 0 10 5 10 10 0 6 -4 10 -10 10 -5 0
-10 -4 -10 -10z"/>
<path d="M1100 540 c0 -56 3 -70 15 -70 9 0 15 9 15 24 0 21 6 25 33 28 29 3
32 6 35 39 3 39 -10 49 -70 49 -28 0 -28 0 -28 -70z m70 35 c15 -18 5 -35 -21
-35 -14 0 -19 7 -19 25 0 28 21 33 40 10z"/>
<path d="M2020 600 c0 -5 5 -10 10 -10 6 0 10 5 10 10 0 6 -4 10 -10 10 -5 0
-10 -4 -10 -10z"/>
<path d="M1949 583 c-5 -64 9 -123 30 -123 5 0 6 66 2 128 -1 19 -31 14 -32
-5z"/>
<path d="M386 554 c-23 -22 -20 -60 6 -78 30 -21 44 -20 68 4 36 36 16 90 -35
90 -13 0 -31 -7 -39 -16z m62 -30 c3 -23 -21 -49 -38 -39 -11 7 -14 48 -3 59
13 13 38 1 41 -20z"/>
<path d="M506 563 c-11 -12 -6 -80 7 -91 8 -7 29 -9 49 -6 35 6 36 7 34 52 -1
55 -26 73 -26 19 0 -33 -20 -64 -33 -50 -4 3 -7 21 -7 39 0 32 -11 50 -24 37z"/>
<path d="M632 558 c-20 -20 -14 -35 18 -47 41 -14 39 -34 -2 -26 -31 6 -32 5
-14 -10 23 -18 31 -18 57 -5 30 17 24 49 -11 57 -16 3 -30 10 -30 15 0 6 14 7
32 2 29 -6 31 -5 19 10 -16 19 -52 21 -69 4z"/>
<path d="M740 520 c0 -27 5 -50 10 -50 6 0 10 23 10 50 0 28 -4 50 -10 50 -5
0 -10 -22 -10 -50z"/>
<path d="M795 562 c-3 -3 -5 -25 -5 -49 0 -56 27 -61 32 -5 2 25 8 37 18 37
10 0 16 -12 18 -37 2 -25 8 -38 18 -38 18 0 19 73 1 88 -13 11 -72 13 -82 4z"/>
<path d="M921 557 c-15 -15 -14 -60 1 -75 7 -7 22 -12 35 -12 14 0 23 -6 23
-16 0 -12 -7 -14 -31 -9 -24 5 -30 4 -27 -6 6 -18 55 -24 74 -8 9 8 14 32 14
74 l0 63 -39 0 c-21 0 -43 -4 -50 -11z m58 -21 c15 -18 3 -46 -20 -46 -13 0
-19 7 -19 23 0 37 18 48 39 23z"/>
<path d="M1230 518 c0 -36 4 -48 15 -48 10 0 15 10 15 34 0 21 6 36 15 40 25
9 17 23 -15 23 -29 0 -30 -2 -30 -49z"/>
<path d="M1309 546 c-24 -51 11 -97 61 -81 29 9 24 26 -6 23 -15 -2 -29 3 -31
10 -3 8 6 12 26 12 36 0 46 12 31 40 -16 30 -67 27 -81 -4z m61 -6 c0 -5 -9
-10 -20 -10 -11 0 -20 5 -20 10 0 6 9 10 20 10 11 0 20 -4 20 -10z"/>
<path d="M1427 564 c-17 -18 -6 -45 23 -55 17 -6 30 -15 30 -20 0 -12 -27 -11
-35 1 -9 15 -25 12 -25 -5 0 -20 43 -29 69 -15 34 18 20 60 -20 60 -10 0 -21
5 -25 12 -5 8 2 9 25 5 24 -5 31 -3 29 6 -5 13 -60 22 -71 11z"/>
<path d="M1536 548 c-21 -30 -20 -44 4 -68 24 -24 40 -25 66 -5 18 14 17 15
-15 12 -20 -1 -36 3 -38 11 -3 8 7 12 31 12 28 0 36 4 36 18 0 44 -58 57 -84
20z m59 -8 c4 -6 -5 -10 -20 -10 -15 0 -24 4 -20 10 3 6 12 10 20 10 8 0 17
-4 20 -10z"/>
<path d="M1644 555 c-9 -21 0 -90 11 -90 6 0 11 16 13 35 2 19 10 39 18 43 22
13 16 25 -12 25 -14 0 -28 -6 -30 -13z"/>
<path d="M1724 547 c25 -103 56 -104 82 -2 4 16 2 25 -5 25 -6 0 -14 -14 -18
-30 -7 -35 -25 -35 -33 0 -3 13 -12 26 -19 28 -10 3 -12 -2 -7 -21z"/>
<path d="M1847 564 c-15 -15 -6 -24 18 -18 15 4 25 2 25 -5 0 -6 -8 -11 -18
-11 -23 0 -42 -19 -42 -41 0 -21 16 -28 58 -21 32 4 33 5 30 51 -3 43 -5 46
-33 49 -17 2 -34 0 -38 -4z m47 -69 c-4 -8 -12 -15 -20 -15 -8 0 -14 7 -14 15
0 8 9 15 20 15 13 0 18 -5 14 -15z"/>
<path d="M2020 520 c0 -27 5 -50 10 -50 6 0 10 23 10 50 0 28 -4 50 -10 50 -5
0 -10 -22 -10 -50z"/>
<path d="M2082 558 c-7 -7 -12 -27 -12 -45 0 -37 28 -58 63 -47 28 8 37 22 37
55 0 32 -17 49 -50 49 -14 0 -31 -5 -38 -12z m63 -29 c5 -14 1 -27 -9 -37 -15
-15 -17 -15 -32 0 -20 20 -10 58 16 58 10 0 22 -10 25 -21z"/>
<path d="M2200 518 c0 -56 17 -65 22 -11 2 27 8 39 21 41 14 3 17 -4 17 -37 0
-30 4 -41 15 -41 11 0 15 11 15 38 0 51 -10 62 -53 60 l-37 -1 0 -49z"/>
<path d="M264 382 c-6 -4 -14 -20 -17 -37 -3 -16 -9 -42 -12 -57 -9 -34 16
-49 71 -41 37 5 39 7 37 36 -1 18 -2 34 -2 36 -1 2 -7 -2 -15 -8 -20 -17 -30
3 -16 29 18 34 -15 63 -46 42z m30 -33 c-3 -5 -10 -7 -15 -3 -5 3 -7 10 -3 15
3 5 10 7 15 3 5 -3 7 -10 3 -15z m-1 -64 c4 -8 2 -17 -4 -21 -12 -7 -41 15
-33 27 8 14 31 11 37 -6z"/>
<path d="M437 383 c-4 -3 -7 -35 -7 -70 l0 -63 48 0 c26 0 53 5 60 12 18 18
15 94 -4 112 -15 16 -84 22 -97 9z m78 -29 c32 -32 2 -96 -39 -81 -16 6 -24
76 -9 90 11 12 31 8 48 -9z"/>
<path d="M920 320 c0 -40 4 -70 10 -70 6 0 10 30 10 70 0 40 -4 70 -10 70 -6
0 -10 -30 -10 -70z"/>
<path d="M1633 360 c-8 -12 -9 -21 -3 -25 6 -3 10 -23 10 -45 0 -23 5 -40 14
-43 21 -8 26 2 14 29 -8 17 -8 31 -1 47 8 17 7 28 -2 40 -15 21 -18 21 -32 -3z"/>
<path d="M580 331 c-15 -30 -12 -56 10 -76 23 -20 70 -14 70 11 0 12 -4 13
-20 4 -21 -11 -40 -6 -40 11 0 5 16 9 35 9 37 0 42 9 25 41 -7 12 -21 19 -40
19 -19 0 -33 -7 -40 -19z m60 -11 c0 -5 -9 -10 -20 -10 -11 0 -20 5 -20 10 0
6 9 10 20 10 11 0 20 -4 20 -10z"/>
<path d="M690 336 c0 -26 30 -86 44 -86 12 0 46 66 46 90 0 22 -21 8 -34 -22
l-14 -33 -12 33 c-12 32 -30 44 -30 18z"/>
<path d="M800 325 c-12 -32 2 -71 29 -80 23 -7 64 11 56 26 -4 6 -13 5 -25 -1
-13 -7 -21 -6 -30 5 -11 13 -7 15 24 15 37 0 43 10 30 44 -4 10 -18 16 -40 16
-28 0 -36 -5 -44 -25z m60 -5 c0 -5 -7 -10 -15 -10 -8 0 -15 5 -15 10 0 6 7
10 15 10 8 0 15 -4 15 -10z"/>
<path d="M981 336 c-7 -8 -11 -30 -9 -48 6 -67 98 -57 98 12 0 14 -5 31 -12
38 -16 16 -63 15 -77 -2z m63 -22 c6 -17 -9 -54 -23 -54 -17 0 -32 30 -26 50
8 24 40 27 49 4z"/>
<path d="M1094 335 c-9 -22 1 -125 11 -126 6 0 11 10 13 21 3 15 9 19 22 15
22 -7 60 26 60 51 0 37 -20 54 -61 52 -23 -1 -43 -7 -45 -13z m74 -28 c5 -27
-17 -50 -34 -36 -15 12 -19 41 -7 53 12 12 38 1 41 -17z"/>
<path d="M1220 300 c0 -27 5 -50 10 -50 6 0 10 11 10 24 0 35 10 56 26 56 10
0 14 -12 14 -40 0 -29 4 -40 15 -40 11 0 15 11 15 40 0 53 27 56 32 3 2 -20 9
-38 16 -41 10 -3 12 8 10 44 l-3 49 -72 3 -73 2 0 -50z"/>
<path d="M1402 338 c-18 -18 -14 -63 6 -81 23 -21 46 -22 63 -1 11 13 9 15
-16 12 -16 -2 -30 2 -32 10 -3 8 6 12 26 12 35 0 50 22 31 45 -15 18 -61 20
-78 3z m53 -18 c3 -5 -3 -10 -14 -10 -12 0 -21 5 -21 10 0 6 6 10 14 10 8 0
18 -4 21 -10z"/>
<path d="M1510 299 c0 -60 23 -65 28 -5 3 29 7 36 20 34 12 -2 18 -15 20 -41
4 -52 32 -51 32 1 0 48 -14 62 -62 62 l-38 0 0 -51z"/>
</g>
</svg>
