<?xml version="1.0" standalone="no"?>
<!DOCTYPE svg PUBLIC "-//W3C//DTD SVG 20010904//EN"
 "http://www.w3.org/TR/2001/REC-SVG-20010904/DTD/svg10.dtd">
<svg version="1.0" xmlns="http://www.w3.org/2000/svg"
 width="260.000000pt" height="262.000000pt" viewBox="0 0 260.000000 262.000000"
 preserveAspectRatio="xMidYMid meet">

<g transform="translate(0.000000,262.000000) scale(0.100000,-0.100000)"
fill="#000000" stroke="none">
<path d="M775 1933 c-68 -20 -152 -80 -195 -136 -128 -168 -88 -430 82 -541
26 -17 47 -34 47 -38 1 -5 -35 -8 -79 -8 l-80 0 0 -360 0 -360 95 0 95 0 0
184 c0 102 4 187 8 190 5 3 82 -80 173 -184 l164 -189 93 0 92 -1 0 350 c0
193 3 350 8 350 4 0 64 -118 135 -261 l127 -261 0 -89 0 -89 95 0 95 0 0 98 0
98 88 179 c133 270 162 330 162 338 0 3 -39 8 -87 9 l-88 3 32 18 c43 23 100
83 127 132 20 37 21 57 24 293 l3 252 -95 0 -95 0 -3 -224 -3 -225 -34 -35
c-87 -89 -260 -58 -291 52 -5 20 -10 126 -10 235 l0 197 -90 0 -90 0 0 -77 c0
-43 -3 -88 -6 -101 -6 -20 -9 -17 -30 25 -28 59 -47 80 -103 121 -90 65 -251
89 -366 55z m205 -198 c27 -14 54 -34 60 -45 10 -18 21 -20 119 -20 126 0 121
5 121 -105 0 -109 5 -105 -117 -105 l-104 0 -35 -34 c-118 -115 -314 -28 -314
139 0 54 20 103 57 136 68 64 133 74 213 34z m310 -349 c23 -55 77 -116 124
-141 20 -11 36 -23 36 -27 0 -5 -81 -8 -180 -8 -113 0 -180 4 -180 10 0 6 6
10 14 10 39 0 156 138 156 185 0 26 10 17 30 -29z m-210 -372 c0 -152 -2 -184
-14 -184 -8 0 -16 4 -18 9 -1 5 -70 84 -153 176 -82 91 -152 171 -154 177 -2
7 7 9 25 5 69 -15 182 -17 239 -4 33 7 63 12 68 9 4 -2 7 -86 7 -188z m484
174 c45 -8 77 -8 138 1 44 7 82 10 84 8 7 -7 -145 -307 -156 -307 -10 0 -150
279 -150 299 0 14 13 14 84 -1z"/>
</g>
</svg>
